<?xml version="1.0" encoding="UTF-8"?>
<svg xmlns="http://www.w3.org/2000/svg" xmlns:xlink="http://www.w3.org/1999/xlink" width="237pt" height="267pt" viewBox="0 0 237 267" version="1.1">
<g id="surface1">
<path style=" stroke:none;fill-rule:nonzero;fill:rgb(89.019608%,0%,49.803922%);fill-opacity:1;" d="M 64.96875 115.625 C 71.972656 115.242188 78.554688 129.402344 81.472656 133.511719 C 83.371094 136.199219 85.253906 137.050781 87.398438 139.554688 C 88.125 140.40625 91.789062 142.335938 92.96875 142.453125 C 100.015625 143.179688 104.472656 140.8125 107.8125 139.898438 C 112.3125 138.679688 115.109375 138.578125 118.917969 136.347656 C 122.53125 134.234375 149.90625 123.085938 151.371094 132.164062 C 152.519531 139.183594 132.796875 150.539062 128.378906 153.410156 C 127.421875 154.023438 127.105469 155.5625 126.039062 156.054688 C 121.125 158.261719 102.085938 165.496094 95.53125 163.898438 C 85.796875 161.523438 73.488281 140.019531 69.488281 131.800781 C 68.832031 130.46875 59.894531 115.886719 64.96875 115.625 "/>
<path style=" stroke:none;fill-rule:nonzero;fill:rgb(89.019608%,0%,49.803922%);fill-opacity:1;" d="M 120.875 87.785156 C 123.777344 87.652344 125.929688 91.148438 126.871094 93.042969 C 127.457031 94.238281 127.234375 95.933594 127.9375 97.023438 C 129.078125 98.773438 131.578125 99.21875 132.125 101.523438 C 133.75 108.40625 122.710938 117.679688 119.582031 120.847656 C 117.785156 122.648438 115.066406 128.207031 112.714844 129.027344 C 111.417969 129.464844 110.296875 128.085938 108.960938 128.890625 C 103.875 131.800781 102.617188 134.828125 97.425781 133.742188 C 92.46875 132.699219 95.355469 125.511719 96.8125 119.988281 C 99.746094 108.941406 111.214844 88.199219 120.875 87.785156 "/>
<path style=" stroke:none;fill-rule:nonzero;fill:rgb(35.686275%,70.588235%,19.215686%);fill-opacity:1;" d="M 155.128906 66.777344 C 165.40625 67.25 176.589844 75.449219 180.492188 81.085938 C 181.894531 83.125 184.484375 87.621094 182.953125 90.011719 C 177.839844 89.191406 172.859375 85.457031 166.972656 85.046875 C 157.527344 84.398438 135.125 88.324219 129.160156 84.679688 C 131.597656 77.546875 135.90625 75.722656 140.246094 71.414062 C 144.257812 67.414062 147.453125 66.425781 155.128906 66.777344 "/>
<path style=" stroke:none;fill-rule:nonzero;fill:rgb(96.470588%,69.019608%,27.45098%);fill-opacity:1;" d="M 86.359375 62.425781 C 96.015625 64.03125 104.222656 70.445312 107.207031 75.585938 C 108.210938 77.339844 112.558594 83.695312 110.308594 85.8125 C 110.058594 86.054688 109.582031 85.917969 109.179688 85.996094 C 109.367188 86.0625 108.144531 85.757812 108.144531 85.757812 C 104.726562 84.625 101.839844 84.214844 98.484375 83.199219 C 92.574219 81.363281 84.164062 79.441406 78.269531 79.1875 C 76.230469 79.113281 73.777344 79.894531 71.890625 79.6875 C 69.835938 79.460938 63.9375 76.785156 61.214844 75.757812 C 60.769531 75.585938 59.761719 74.960938 59.339844 74.625 C 58.792969 74.210938 58.027344 73.109375 57.957031 72.5 C 57.519531 68.542969 64.5625 64.675781 67.316406 63.457031 C 71.515625 61.578125 80.179688 61.402344 86.359375 62.425781 "/>
<path style=" stroke:none;fill-rule:nonzero;fill:rgb(35.686275%,70.588235%,19.215686%);fill-opacity:1;" d="M 177.167969 58.28125 C 187.710938 57.878906 206.207031 80.972656 203.324219 89.914062 C 199.21875 102.671875 189.039062 105.953125 177.746094 109.917969 C 175.757812 110.609375 171.421875 113.039062 169.398438 112.839844 C 167.96875 112.6875 167.917969 111 166.929688 110.695312 C 165.359375 110.230469 163.78125 111.757812 161.996094 111.554688 C 163.035156 108.914062 170.566406 103.519531 173.011719 102.382812 C 174.011719 101.886719 180.308594 98.203125 182.746094 96.515625 C 187.859375 93 188.75 93.785156 192.183594 88.199219 C 192.816406 87.183594 193.84375 85.242188 193.398438 83.621094 C 192.304688 79.753906 183.421875 74.128906 180.445312 70.996094 C 178.902344 69.394531 177.878906 67.3125 176.476562 65.601562 C 175.144531 63.964844 172.386719 58.480469 177.167969 58.28125 "/>
<path style=" stroke:none;fill-rule:nonzero;fill:rgb(96.470588%,69.019608%,27.45098%);fill-opacity:1;" d="M 68.554688 41.25 C 70.640625 41.21875 71.824219 42.703125 72.867188 43.652344 C 81.421875 51.464844 57.953125 61.863281 54.148438 63.632812 C 53.5625 63.921875 52.921875 64.121094 52.34375 64.4375 C 51.152344 65.0625 50.113281 65.820312 49.109375 66.671875 C 47.949219 67.65625 47.054688 68.703125 46.117188 70.003906 C 45.503906 70.820312 44.703125 71.785156 44.792969 73.527344 C 45.125 79.359375 54.453125 82.824219 57.242188 87.289062 C 60.179688 91.996094 55.273438 91.261719 52.0625 89.703125 C 48.746094 88.058594 44.246094 85.671875 41.59375 83.199219 C 38.679688 80.484375 30.746094 65.917969 33.957031 60.386719 C 37.988281 53.445312 44.640625 51.015625 51.296875 47.429688 C 55.023438 45.414062 63.851562 41.261719 68.554688 41.25 "/>
<path style=" stroke:none;fill-rule:nonzero;fill:rgb(0%,49.019608%,77.254902%);fill-opacity:1;" d="M 140.660156 28.707031 C 142.214844 28.765625 145.09375 32.488281 146.1875 33.457031 C 147.855469 34.9375 150.402344 37.289062 150.882812 39.621094 C 152.464844 47.511719 139.84375 63.070312 136.371094 66.457031 C 135.121094 67.648438 132.824219 67.554688 131.726562 68.832031 C 131.179688 69.476562 130.683594 70.277344 130.234375 71.039062 C 129.832031 71.742188 128.675781 72.121094 128.242188 72.765625 C 125.972656 76.058594 123.859375 79.550781 122.132812 83.058594 C 120.503906 82.152344 121.488281 81.648438 120.617188 80.203125 C 120.230469 79.550781 118.992188 79.480469 118.648438 78.796875 C 116.285156 74.320312 117.949219 64.375 119.683594 59.554688 C 120.179688 58.160156 121.476562 56.867188 121.839844 55.269531 C 122.550781 51.980469 122.761719 48.890625 124.449219 46.605469 C 125.917969 44.601562 130.609375 39.714844 131.808594 37.730469 C 132.324219 36.871094 132.125 35.617188 132.558594 34.648438 C 133.390625 32.792969 138.261719 28.621094 140.660156 28.707031 "/>
<path style=" stroke:none;fill-rule:nonzero;fill:rgb(0%,49.019608%,77.254902%);fill-opacity:1;" d="M 155.007812 0.101562 C 159.546875 -0.757812 159.914062 4.09375 162.734375 6.898438 C 164.835938 9 165.964844 12.414062 166.972656 15.324219 C 169.101562 21.492188 167.433594 34.300781 165.691406 39.15625 C 164.507812 42.429688 162.523438 45.769531 160.128906 47.808594 C 159.128906 48.660156 159.179688 48.660156 157.773438 48.683594 C 157.636719 45.953125 157.484375 22.761719 154.890625 21.746094 C 152.289062 20.734375 134.574219 26.945312 131.925781 27.90625 C 129.105469 28.914062 124.125 28.347656 121.78125 26.269531 C 121.054688 25.621094 118.664062 22.660156 118.515625 21.78125 C 118.101562 19.417969 126.542969 12.292969 128.355469 11.769531 C 130.144531 11.207031 131.394531 12.21875 133.179688 11.234375 C 138.382812 8.34375 143.105469 4.1875 149.421875 2.621094 C 152.140625 1.925781 152.632812 0.542969 155.007812 0.101562 "/>
<path style=" stroke:none;fill-rule:evenodd;fill:rgb(13.72549%,9.411765%,8.235294%);fill-opacity:1;" d="M 33.519531 217.285156 C 35.222656 219.878906 36.910156 223.199219 38.585938 227.242188 L 35.320312 229.375 C 33.980469 225.527344 32.503906 222.210938 30.882812 219.421875 M 19.75 217.117188 C 22.207031 218.679688 24.609375 220.703125 26.953125 223.183594 L 23.6875 225.269531 C 21.730469 222.960938 19.554688 220.957031 17.15625 219.246094 Z M 10.460938 216.445312 L 14.855469 216.992188 C 15.410156 217.046875 15.691406 217.257812 15.691406 217.617188 C 15.691406 217.980469 15.410156 218.371094 14.855469 218.792969 C 14.4375 219.097656 14.226562 219.566406 14.226562 220.214844 L 14.226562 223.980469 C 14.226562 225.125 14.410156 225.972656 14.769531 226.53125 C 15.132812 227.011719 15.933594 227.242188 17.15625 227.242188 L 24.519531 227.242188 C 25.945312 227.242188 27.003906 227.023438 27.703125 226.578125 C 28.484375 226.164062 29.109375 224.917969 29.585938 222.851562 L 33.1875 224.488281 C 32.460938 227.242188 31.566406 229.015625 30.507812 229.800781 C 29.585938 230.496094 28.457031 230.84375 27.117188 230.84375 L 15.523438 230.84375 C 13.851562 230.84375 12.554688 230.316406 11.632812 229.257812 C 10.851562 228.25 10.460938 226.828125 10.460938 224.992188 Z M 5.398438 218.078125 L 8.285156 219.546875 C 8.757812 219.710938 8.996094 219.878906 8.996094 220.042969 C 8.996094 220.320312 8.773438 220.542969 8.324219 220.710938 C 7.042969 224.644531 5.621094 227.90625 4.054688 230.503906 L 0.792969 228.582031 C 2.554688 225.625 4.085938 222.128906 5.398438 218.078125 M 24.148438 201.425781 C 24.898438 203.910156 26.097656 205.902344 27.746094 207.410156 C 27.941406 207.574219 28.136719 207.746094 28.328125 207.914062 C 29.167969 207.046875 29.867188 206.082031 30.421875 205.027344 C 30.953125 204.074219 31.402344 202.875 31.761719 201.425781 Z M 10.796875 199.960938 L 14.101562 200.253906 C 14.71875 200.285156 15.023438 200.449219 15.023438 200.753906 C 15.023438 200.949219 14.800781 201.230469 14.355469 201.59375 L 14.355469 204.398438 C 16.082031 202.886719 17.464844 201.367188 18.496094 199.835938 C 19.613281 198.277344 20.632812 196.183594 21.550781 193.558594 L 25.109375 194.769531 C 25.472656 194.910156 25.65625 195.105469 25.65625 195.355469 C 25.65625 195.5 25.222656 195.664062 24.355469 195.859375 C 24.105469 196.582031 23.824219 197.300781 23.519531 197.996094 L 38.082031 197.996094 L 38.082031 201.421875 L 35.445312 201.421875 C 35.082031 203.492188 34.554688 205.164062 33.855469 206.445312 C 33.214844 207.78125 32.375 209.015625 31.34375 210.128906 C 33.324219 211.300781 35.792969 212.480469 38.75 213.683594 L 35.613281 216.949219 C 32.738281 215.550781 30.3125 214.144531 28.328125 212.722656 C 27.828125 213.03125 27.296875 213.339844 26.742188 213.640625 C 24.898438 214.589844 22.527344 215.582031 19.625 216.613281 L 16.488281 213.351562 C 19.277344 212.652344 21.382812 211.996094 22.804688 211.378906 C 23.726562 211.019531 24.566406 210.613281 25.320312 210.167969 C 25.042969 209.863281 24.773438 209.566406 24.519531 209.285156 C 22.960938 207.644531 21.773438 205.425781 20.964844 202.636719 C 19.90625 204.089844 18.746094 205.425781 17.492188 206.652344 L 14.355469 204.640625 L 14.355469 214.015625 L 10.796875 214.015625 Z M 8.496094 193.5625 L 11.714844 195.023438 C 12.078125 195.164062 12.261719 195.332031 12.261719 195.527344 C 12.261719 195.972656 11.925781 196.304688 11.253906 196.53125 C 10.222656 198.261719 9.246094 199.765625 8.324219 201.050781 L 8.324219 217.457031 L 4.726562 217.457031 L 4.726562 205.320312 C 4.054688 206.015625 3.347656 206.726562 2.589844 207.453125 L 0 204.863281 C 1.894531 203.128906 3.5 201.371094 4.8125 199.585938 C 6.039062 198 7.265625 195.988281 8.496094 193.5625 "/>
<path style=" stroke:none;fill-rule:evenodd;fill:rgb(13.72549%,9.411765%,8.235294%);fill-opacity:1;" d="M 87.429688 205.191406 C 87.710938 205.191406 87.957031 205.277344 88.179688 205.441406 L 89.773438 206.40625 C 89.96875 206.542969 90.066406 206.683594 90.066406 206.824219 C 90.066406 207.105469 89.847656 207.367188 89.394531 207.621094 L 85.003906 212.761719 L 85.003906 215.148438 L 90.070312 215.148438 L 90.070312 218.246094 L 85.003906 218.246094 L 85.003906 223.8125 C 85.003906 225.125 84.351562 225.878906 83.035156 226.074219 C 82.085938 226.210938 80.230469 226.28125 77.472656 226.28125 L 76.171875 222.6875 L 80.230469 222.6875 C 81.128906 222.6875 81.570312 222.3125 81.570312 221.558594 L 81.570312 218.246094 L 75.332031 218.246094 L 75.332031 215.148438 L 81.570312 215.148438 L 81.570312 211.046875 L 82.953125 211.339844 L 85.046875 208.453125 L 77.136719 208.453125 L 77.136719 205.355469 L 86.804688 205.355469 M 79.597656 193.269531 L 82.738281 194.394531 C 83.15625 194.511719 83.363281 194.675781 83.363281 194.898438 C 83.363281 195.011719 83.253906 195.164062 83.027344 195.359375 C 82.777344 195.472656 82.316406 196.324219 81.648438 197.914062 C 81.507812 198.222656 81.367188 198.515625 81.226562 198.796875 L 89.554688 198.796875 L 89.554688 201.933594 L 79.59375 201.933594 C 78.980469 202.992188 78.324219 204.023438 77.625 205.03125 L 74.199219 203.0625 C 76.402344 200.355469 78.203125 197.089844 79.597656 193.269531 M 66.667969 193.097656 L 69.847656 193.308594 C 70.464844 193.339844 70.769531 193.480469 70.769531 193.726562 C 70.769531 193.949219 70.546875 194.285156 70.101562 194.738281 L 70.101562 198.5 L 74.535156 198.5 L 74.535156 201.765625 L 68.132812 201.765625 C 68.132812 203.304688 68.117188 204.710938 68.09375 205.992188 L 74.035156 205.992188 C 74.035156 214.164062 73.855469 219.328125 73.488281 221.476562 C 73.269531 223.539062 72.777344 224.949219 72.027344 225.707031 C 71.21875 226.511719 69.863281 226.917969 67.964844 226.917969 L 66.503906 223.652344 C 68.320312 223.652344 69.394531 223.429688 69.726562 222.980469 C 70.03125 222.621094 70.285156 221.742188 70.484375 220.34375 C 70.734375 218.921875 70.871094 215.183594 70.898438 209.132812 L 68.011719 209.132812 C 67.929688 211.285156 67.804688 213.039062 67.636719 214.40625 C 67.332031 216.835938 66.980469 218.730469 66.589844 220.09375 C 66.03125 222.082031 65.347656 223.75 64.539062 225.117188 L 61.441406 223.320312 C 62.417969 221.757812 63.160156 220.152344 63.664062 218.507812 C 64.105469 216.890625 64.457031 214.988281 64.707031 212.820312 C 64.90625 210.835938 65.015625 207.15625 65.042969 201.769531 L 61.441406 201.769531 L 61.441406 198.503906 L 66.671875 198.503906 L 66.671875 193.097656 Z M 54.074219 211.554688 L 60.476562 211.554688 L 60.476562 224.101562 C 61.257812 225.417969 62.46875 226.335938 64.113281 226.867188 C 65.984375 227.453125 68.859375 227.75 72.734375 227.75 C 79.203125 227.75 85.136719 227.578125 90.519531 227.242188 L 89.226562 231.34375 L 72.734375 231.34375 C 69.335938 231.34375 66.597656 231.09375 64.535156 230.589844 C 62.382812 230.085938 60.699219 229.234375 59.46875 228.035156 C 58.941406 227.5625 58.492188 227.03125 58.132812 226.445312 L 54.90625 230.046875 C 54.714844 230.460938 54.488281 230.675781 54.234375 230.675781 C 53.960938 230.675781 53.734375 230.492188 53.570312 230.128906 L 51.476562 227.242188 C 53.457031 226.097656 55.144531 224.941406 56.539062 223.773438 L 56.539062 214.816406 L 54.074219 214.816406 Z M 54.402344 201.59375 C 56.75 202.765625 58.714844 204.023438 60.304688 205.359375 L 58.003906 207.789062 C 56.164062 206.425781 54.140625 205.167969 51.9375 204.023438 Z M 55.367188 194.0625 C 57.65625 195.347656 59.5625 196.710938 61.101562 198.164062 L 58.800781 200.59375 C 57.011719 199.089844 55.0625 197.738281 52.941406 196.535156 Z M 55.367188 194.0625 "/>
<path style=" stroke:none;fill-rule:evenodd;fill:rgb(13.72549%,9.411765%,8.235294%);fill-opacity:1;" d="M 118.476562 193.390625 L 121.785156 193.683594 C 122.398438 193.746094 122.703125 193.921875 122.703125 194.234375 C 122.703125 194.394531 122.492188 194.675781 122.074219 195.066406 L 122.074219 198.664062 L 135.46875 198.664062 L 135.46875 201.933594 L 122.074219 201.933594 L 122.074219 207.453125 L 140.867188 207.453125 L 140.867188 211.050781 L 122.074219 211.050781 L 122.074219 214.734375 C 127.347656 217.191406 131.816406 219.785156 135.46875 222.519531 L 133 225.109375 C 129.59375 222.796875 125.953125 220.648438 122.078125 218.667969 L 122.078125 231.511719 L 118.480469 231.511719 L 118.480469 211.050781 L 103.25 211.050781 L 103.25 207.453125 L 118.480469 207.453125 "/>
<path style=" stroke:none;fill-rule:evenodd;fill:rgb(13.72549%,9.411765%,8.235294%);fill-opacity:1;" d="M 168.996094 207.785156 L 172.757812 209.289062 C 173.289062 209.460938 173.554688 209.671875 173.554688 209.914062 C 173.554688 210.117188 173.234375 210.449219 172.59375 210.921875 C 170.890625 215.328125 168.671875 220.171875 165.941406 225.445312 C 171.15625 225.132812 176.136719 224.648438 180.882812 223.980469 C 179.371094 221.75 177.808594 219.6875 176.195312 217.792969 L 178.953125 215.488281 C 182.277344 218.976562 185.542969 223.4375 188.75 228.882812 L 185.152344 231.347656 C 184.425781 229.894531 183.675781 228.515625 182.890625 227.207031 L 159.164062 230.058594 C 158.691406 230.695312 158.257812 231.015625 157.867188 231.015625 C 157.390625 231.015625 157.125 230.804688 157.066406 230.386719 L 155.566406 225.785156 C 157.714844 225.757812 159.832031 225.707031 161.925781 225.617188 C 163.210938 223.136719 164.269531 220.863281 165.105469 218.800781 C 166.660156 215.082031 167.960938 211.414062 168.996094 207.785156 M 166.695312 195.195312 L 180.585938 195.195312 C 181.03125 199.710938 182.277344 203.351562 184.3125 206.113281 C 185.789062 208.0625 188.316406 210.421875 191.886719 213.1875 L 188.121094 215.820312 C 184.242188 212.691406 181.4375 209.738281 179.707031 206.949219 C 178.230469 204.828125 177.222656 202.066406 176.695312 198.664062 L 166.695312 198.664062 Z M 162.757812 199.460938 L 166.816406 200.128906 C 167.261719 200.269531 167.484375 200.476562 167.484375 200.757812 C 167.484375 201.121094 167.113281 201.453125 166.355469 201.761719 C 165.269531 204.941406 164.152344 207.386719 163.007812 209.085938 C 161.613281 211.175781 159.519531 213.367188 156.730469 215.652344 L 153.59375 213.019531 C 156.328125 211.011719 158.378906 208.90625 159.746094 206.699219 C 160.832031 205.191406 161.835938 202.78125 162.757812 199.460938 "/>
<path style=" stroke:none;fill-rule:evenodd;fill:rgb(13.72549%,9.411765%,8.235294%);fill-opacity:1;" d="M 211.808594 220.714844 L 222.601562 220.714844 L 222.601562 214.1875 L 211.808594 214.1875 M 208.042969 210.757812 L 226.199219 210.757812 L 226.199219 224.152344 L 211.804688 224.152344 L 211.804688 226.910156 L 208.039062 226.910156 L 208.039062 210.757812 Z M 206.578125 203.058594 L 228.128906 203.058594 L 228.128906 206.492188 L 206.578125 206.492188 Z M 204.609375 195.359375 L 236.832031 195.359375 L 236.832031 226.910156 C 236.832031 228.867188 235.6875 230.117188 233.402344 230.679688 C 231.644531 231.121094 229.886719 231.34375 228.128906 231.34375 L 226.664062 227.410156 L 231.058594 227.332031 C 232.285156 227.273438 232.902344 226.757812 232.902344 225.777344 L 232.902344 198.957031 L 204.609375 198.957031 Z M 204.609375 195.359375 "/>
<path style=" stroke:none;fill-rule:evenodd;fill:rgb(13.72549%,9.411765%,8.235294%);fill-opacity:1;" d="M 14.882812 266.515625 L 0.195312 266.515625 L 0.195312 242.050781 L 13.414062 242.050781 L 13.414062 245.335938 L 5.089844 245.335938 L 5.089844 252.011719 L 13.234375 252.011719 L 13.234375 255.367188 L 5.089844 255.367188 L 5.089844 263.230469 L 14.882812 263.230469 "/>
<path style=" stroke:none;fill-rule:evenodd;fill:rgb(13.72549%,9.411765%,8.235294%);fill-opacity:1;" d="M 27.449219 258.878906 L 24.902344 251.414062 L 22.082031 258.878906 M 34.203125 266.515625 L 30.023438 266.515625 L 28.222656 261.230469 L 21.25 261.230469 L 19.226562 266.515625 L 16.015625 266.515625 L 23.933594 247.144531 L 26.921875 247.144531 Z M 34.203125 266.515625 "/>
<path style=" stroke:none;fill-rule:evenodd;fill:rgb(13.72549%,9.411765%,8.235294%);fill-opacity:1;" d="M 47.703125 261.425781 C 47.703125 263.015625 47.078125 264.3125 45.824219 265.324219 C 44.570312 266.34375 42.945312 266.851562 40.953125 266.851562 C 38.851562 266.851562 36.933594 266.238281 35.195312 265.023438 L 36.660156 262.699219 C 38.03125 263.734375 39.359375 264.253906 40.648438 264.253906 C 41.550781 264.253906 42.292969 264.019531 42.859375 263.558594 C 43.433594 263.074219 43.722656 262.453125 43.722656 261.675781 C 43.722656 260.757812 43.011719 259.660156 41.59375 258.386719 C 40.925781 257.796875 39.894531 256.9375 38.492188 255.8125 C 36.886719 254.539062 36.085938 253.148438 36.085938 251.632812 C 36.085938 250.210938 36.660156 249.058594 37.828125 248.171875 C 39.007812 247.269531 40.511719 246.820312 42.339844 246.820312 C 44.105469 246.820312 45.75 247.34375 47.261719 248.398438 L 45.769531 250.53125 C 44.679688 249.792969 43.636719 249.421875 42.644531 249.421875 C 41.886719 249.421875 41.273438 249.609375 40.8125 249.976562 C 40.371094 250.347656 40.148438 250.839844 40.148438 251.445312 C 40.148438 252.179688 40.742188 253.042969 41.921875 254.042969 C 42.347656 254.390625 43.339844 255.226562 44.910156 256.53125 C 46.773438 258.039062 47.703125 259.675781 47.703125 261.425781 "/>
<path style=" stroke:none;fill-rule:evenodd;fill:rgb(13.72549%,9.411765%,8.235294%);fill-opacity:1;" d="M 65.363281 247.3125 L 58.996094 258.460938 L 58.996094 266.515625 L 55.121094 266.515625 L 55.121094 258.460938 L 49.367188 247.53125 L 53.433594 246.898438 L 57.449219 255.753906 L 62.070312 246.898438 "/>
<path style=" stroke:none;fill-rule:evenodd;fill:rgb(13.72549%,9.411765%,8.235294%);fill-opacity:1;" d="M 86.984375 243.585938 L 85.410156 246.628906 C 83.613281 245.601562 81.863281 245.09375 80.128906 245.09375 C 77.5 245.09375 75.367188 245.925781 73.734375 247.609375 C 72.101562 249.265625 71.285156 251.464844 71.285156 254.214844 C 71.285156 256.894531 72.101562 259.105469 73.734375 260.855469 C 75.386719 262.597656 77.574219 263.472656 80.308594 263.472656 C 82.128906 263.472656 83.851562 263.027344 85.480469 262.148438 L 86.773438 265.152344 C 84.609375 266.339844 82.207031 266.929688 79.574219 266.929688 C 75.636719 266.929688 72.398438 265.769531 69.859375 263.4375 C 67.316406 261.109375 66.046875 258.09375 66.046875 254.421875 C 66.046875 250.738281 67.339844 247.6875 69.925781 245.261719 C 72.511719 242.839844 75.773438 241.628906 79.714844 241.628906 C 82.253906 241.632812 84.675781 242.28125 86.984375 243.585938 "/>
<path style=" stroke:none;fill-rule:evenodd;fill:rgb(13.72549%,9.411765%,8.235294%);fill-opacity:1;" d="M 99.515625 258.878906 L 96.96875 251.414062 L 94.144531 258.878906 M 106.269531 266.515625 L 102.089844 266.515625 L 100.292969 261.230469 L 93.316406 261.230469 L 91.300781 266.515625 L 88.085938 266.515625 L 96 247.144531 L 98.988281 247.144531 Z M 106.269531 266.515625 "/>
<path style=" stroke:none;fill-rule:evenodd;fill:rgb(13.72549%,9.411765%,8.235294%);fill-opacity:1;" d="M 117.640625 252.660156 C 117.640625 251.492188 117.28125 250.660156 116.5625 250.164062 C 116.070312 249.816406 115.222656 249.640625 114.015625 249.640625 L 112.523438 249.640625 L 112.523438 256.25 L 113.691406 256.25 C 115.09375 256.25 116.097656 255.9375 116.703125 255.3125 C 117.332031 254.660156 117.640625 253.777344 117.640625 252.660156 M 122.875 266.097656 L 118.832031 266.851562 L 114.851562 258.65625 L 112.527344 258.65625 L 112.527344 266.515625 L 108.652344 266.515625 L 108.652344 247.144531 L 114.324219 247.144531 C 115.5625 247.144531 116.46875 247.191406 117.039062 247.285156 C 118.054688 247.433594 118.890625 247.746094 119.554688 248.222656 C 120.867188 249.1875 121.523438 250.570312 121.523438 252.375 C 121.523438 254.714844 120.394531 256.546875 118.144531 257.855469 Z M 122.875 266.097656 "/>
<path style=" stroke:none;fill-rule:evenodd;fill:rgb(13.72549%,9.411765%,8.235294%);fill-opacity:1;" d="M 138.816406 256.5 C 138.816406 253.546875 137.828125 251.558594 135.851562 250.523438 C 134.855469 250.011719 133.304688 249.75 131.203125 249.75 L 129.511719 249.75 L 129.511719 263.917969 L 131.089844 263.917969 C 132.53125 263.917969 133.648438 263.820312 134.4375 263.609375 C 135.234375 263.390625 135.953125 263.011719 136.597656 262.472656 C 138.078125 261.21875 138.816406 259.230469 138.816406 256.5 M 142.964844 256.308594 C 142.964844 260.363281 141.386719 263.277344 138.230469 265.046875 C 136.480469 266.027344 134.0625 266.511719 130.980469 266.511719 L 125.640625 266.511719 L 125.640625 247.140625 L 130.980469 247.140625 C 132.808594 247.140625 134.25 247.253906 135.300781 247.476562 C 136.128906 247.648438 137.027344 247.964844 137.984375 248.445312 C 141.304688 250.089844 142.964844 252.707031 142.964844 256.308594 "/>
<path style=" stroke:none;fill-rule:evenodd;fill:rgb(13.72549%,9.411765%,8.235294%);fill-opacity:1;" d="M 176.140625 243.585938 L 174.570312 246.628906 C 172.777344 245.601562 171.015625 245.09375 169.289062 245.09375 C 166.65625 245.09375 164.519531 245.925781 162.890625 247.609375 C 161.261719 249.265625 160.449219 251.464844 160.449219 254.214844 C 160.449219 256.894531 161.261719 259.105469 162.890625 260.855469 C 164.542969 262.597656 166.734375 263.472656 169.464844 263.472656 C 171.28125 263.472656 173.007812 263.027344 174.636719 262.148438 L 175.933594 265.152344 C 173.769531 266.339844 171.363281 266.929688 168.734375 266.929688 C 164.796875 266.929688 161.554688 265.769531 159.011719 263.4375 C 156.472656 261.109375 155.203125 258.09375 155.203125 254.421875 C 155.203125 250.738281 156.496094 247.6875 159.082031 245.261719 C 161.667969 242.839844 164.933594 241.628906 168.875 241.628906 C 171.410156 241.632812 173.835938 242.28125 176.140625 243.585938 "/>
<path style=" stroke:none;fill-rule:evenodd;fill:rgb(13.72549%,9.411765%,8.235294%);fill-opacity:1;" d="M 193.65625 256.890625 C 193.65625 254.589844 193.160156 252.78125 192.160156 251.492188 C 191.1875 250.199219 189.828125 249.554688 188.09375 249.554688 C 186.285156 249.554688 184.890625 250.347656 183.910156 251.933594 C 183.085938 253.28125 182.671875 254.914062 182.671875 256.835938 C 182.671875 258.804688 183.085938 260.449219 183.910156 261.761719 C 184.910156 263.328125 186.332031 264.113281 188.175781 264.113281 C 189.855469 264.113281 191.1875 263.464844 192.15625 262.175781 C 193.15625 260.867188 193.65625 259.101562 193.65625 256.890625 M 197.835938 256.640625 C 197.835938 259.554688 196.957031 261.96875 195.203125 263.890625 C 193.410156 265.867188 191.074219 266.851562 188.179688 266.851562 C 185.300781 266.851562 182.957031 265.871094 181.152344 263.917969 C 179.398438 262.015625 178.519531 259.609375 178.519531 256.695312 C 178.519531 253.800781 179.441406 251.425781 181.289062 249.582031 C 183.132812 247.734375 185.496094 246.816406 188.375 246.816406 C 191.070312 246.816406 193.320312 247.757812 195.125 249.640625 C 196.925781 251.5 197.835938 253.832031 197.835938 256.640625 "/>
<path style=" stroke:none;fill-rule:evenodd;fill:rgb(13.72549%,9.411765%,8.235294%);fill-opacity:1;" d="M 210.484375 252.660156 C 210.484375 251.492188 210.125 250.660156 209.402344 250.164062 C 208.902344 249.816406 208.054688 249.640625 206.855469 249.640625 L 205.363281 249.640625 L 205.363281 256.25 L 206.523438 256.25 C 207.929688 256.25 208.933594 255.9375 209.542969 255.3125 C 210.167969 254.660156 210.484375 253.777344 210.484375 252.660156 M 215.710938 266.097656 L 211.667969 266.851562 L 207.6875 258.65625 L 205.363281 258.65625 L 205.363281 266.515625 L 201.488281 266.515625 L 201.488281 247.144531 L 207.160156 247.144531 C 208.394531 247.144531 209.304688 247.191406 209.875 247.285156 C 210.890625 247.433594 211.730469 247.746094 212.390625 248.222656 C 213.703125 249.1875 214.359375 250.570312 214.359375 252.375 C 214.359375 254.714844 213.234375 256.546875 210.984375 257.855469 Z M 215.710938 266.097656 "/>
<path style=" stroke:none;fill-rule:evenodd;fill:rgb(13.72549%,9.411765%,8.235294%);fill-opacity:1;" d="M 231.625 252.597656 C 231.625 254.550781 230.886719 256.140625 229.410156 257.359375 C 227.949219 258.554688 226.023438 259.164062 223.632812 259.183594 L 223.632812 256.804688 C 226.339844 256.601562 227.695312 255.332031 227.695312 252.984375 C 227.695312 251.546875 227.15625 250.578125 226.066406 250.082031 C 225.570312 249.863281 224.683594 249.75 223.410156 249.75 L 222.328125 249.75 L 222.328125 266.511719 L 218.488281 266.511719 L 218.488281 247.140625 L 223.605469 247.140625 C 224.96875 247.140625 225.9375 247.179688 226.507812 247.253906 C 227.578125 247.378906 228.484375 247.679688 229.222656 248.140625 C 230.820312 249.140625 231.625 250.625 231.625 252.597656 "/>
<path style=" stroke:none;fill-rule:evenodd;fill:rgb(13.72549%,9.411765%,8.235294%);fill-opacity:1;" d="M 236.578125 264.660156 C 236.578125 265.253906 236.371094 265.75 235.96875 266.15625 C 235.5625 266.546875 235.0625 266.738281 234.472656 266.738281 C 233.882812 266.738281 233.386719 266.546875 232.980469 266.15625 C 232.574219 265.75 232.371094 265.257812 232.371094 264.691406 C 232.371094 264.046875 232.574219 263.527344 232.980469 263.140625 C 233.386719 262.734375 233.914062 262.53125 234.558594 262.53125 C 235.128906 262.53125 235.609375 262.742188 236 263.164062 C 236.390625 263.574219 236.578125 264.070312 236.578125 264.660156 "/>
</g>
</svg>
